<svg width="34" height="18" viewBox="0 0 34 18" fill="none" xmlns="http://www.w3.org/2000/svg">
<path d="M9.80001 13.375C9.04212 14.125 8.03159 14.5 6.89475 14.5C6.13685 14.5 5.37896 14.25 4.8737 13.875L3.35791 16.25C4.36843 17 5.63159 17.375 6.89475 17.375C8.78949 17.375 10.5579 16.625 11.8211 15.375L9.80001 13.375ZM7.14738 3.75C3.35791 3.75 0.200012 6.75 0.200012 10.5C0.200012 11.875 0.57896 13.25 1.33685 14.375L13.7158 9.125C12.9579 6 10.3053 3.75 7.14738 3.75ZM2.97896 11V10.5C2.97896 8.25 4.8737 6.5 7.02107 6.5C8.28422 6.5 9.29475 7.125 10.0526 7.875L2.97896 11ZM17.6316 0.625V13.75L19.9053 14.75L18.7684 17.375L16.4948 16.375C15.9895 16.125 15.6105 15.875 15.3579 15.5C15.1053 15.125 14.979 14.625 14.979 13.875V0.625H17.6316ZM25.8421 6.75C26.2211 6.625 26.7263 6.5 27.1053 6.5C29 6.5 30.6421 7.875 31.0211 9.75L33.8 9.25C33.1684 6.125 30.3895 3.75 27.1053 3.75C26.3474 3.75 25.5895 3.875 24.9579 4.125L25.8421 6.75ZM22.5579 15.625L24.4526 13.5C23.5684 12.75 23.0632 11.75 23.0632 10.5C23.0632 9.25 23.5684 8.25 24.4526 7.5L22.5579 5.375C21.1684 6.625 20.2842 8.5 20.2842 10.5C20.2842 12.625 21.1684 14.375 22.5579 15.625ZM31.0211 11.375C30.6421 13.25 29 14.625 27.1053 14.625C26.6 14.625 26.2211 14.5 25.8421 14.375L24.9579 17C25.5895 17.25 26.3474 17.375 27.1053 17.375C30.3895 17.375 33.1684 15 33.8 11.875L31.0211 11.375Z" fill="black"/>
</svg>
