<svg width="25" height="18" viewBox="0 0 25 18" fill="none" xmlns="http://www.w3.org/2000/svg">
<path d="M4.1579 9V13.625C4.1579 14 3.90526 14 3.52632 13.875C1.12632 12.875 -0.263157 9.75 0.621054 7.125C1.12632 5.75 2.13684 4.625 3.52632 4.125C4.03158 3.875 4.1579 4 4.1579 4.375V9ZM6.68421 9V4.375C6.68421 4 6.68421 4 7.06316 4.125C9.71579 5.125 11.1053 8.25 10.0947 10.875C9.58948 12.25 8.57895 13.375 7.18948 13.875C6.68421 14.125 6.68421 14 6.68421 13.625V9ZM15.779 0.25H5.42105C10.2211 0.25 14.0105 4.125 14.0105 9C14.0105 13.875 10.2211 17.75 5.42105 17.75H15.779C20.579 17.75 24.3684 13.875 24.3684 9C24.3684 4.125 20.579 0.25 15.779 0.25Z" fill="#3086C8"/>
</svg>
