<svg width="46" height="28" viewBox="0 0 46 28" fill="none" xmlns="http://www.w3.org/2000/svg">
<path d="M42.4364 0L42.9147 0.000849343C43.0441 0.00169868 43.1737 0.00311424 43.3038 0.00651158C43.5307 0.0127401 43.7956 0.0249139 44.0428 0.0687963C44.2574 0.107016 44.4376 0.165054 44.6104 0.252253C44.9562 0.426242 45.2372 0.704553 45.4126 1.04695C45.5002 1.21682 45.5585 1.39405 45.5971 1.60836C45.6412 1.85014 45.6535 2.11315 45.6595 2.33879C45.6632 2.46619 45.6649 2.59359 45.6652 2.72382C45.6667 2.88152 45.6667 3.03893 45.6667 3.1969V24.8035C45.6667 24.9614 45.6667 25.1189 45.6655 25.2797C45.665 25.4071 45.6632 25.5345 45.6598 25.6619C45.6535 25.8872 45.6412 26.1502 45.5966 26.3948C45.5641 26.5894 45.5019 26.778 45.412 26.954C45.2362 27.2965 44.9549 27.5748 44.6087 27.7487C44.437 27.8353 44.2574 27.8934 44.0448 27.9313C43.7928 27.9757 43.5164 27.9879 43.3084 27.9936C43.1777 27.9964 43.0475 27.9984 42.9139 27.999C42.7551 28.0001 42.5955 28.0001 42.4364 28.0001H3.55729C3.39994 28.0001 3.24259 28.0001 3.08238 27.999C2.95362 27.9984 2.82487 27.9967 2.69615 27.9939C2.4833 27.9882 2.20693 27.9757 1.95689 27.9316C1.75919 27.899 1.56763 27.8369 1.38871 27.7476C1.21709 27.6613 1.06044 27.5485 0.924666 27.4135C0.78846 27.2789 0.674705 27.1238 0.587649 26.954C0.497744 26.777 0.435433 26.5875 0.402833 26.392C0.358203 26.1477 0.345615 25.8858 0.339893 25.6622C0.336661 25.5343 0.334754 25.4064 0.334171 25.2785L0.333313 24.9028V3.09782L0.333885 2.72269C0.334476 2.59461 0.336383 2.46655 0.339607 2.33851C0.345901 2.11428 0.358203 1.8524 0.40312 1.6061C0.435784 1.41099 0.498094 1.2219 0.587935 1.04525C0.674907 0.87595 0.7882 0.72137 0.925524 0.585759C1.06163 0.450859 1.21844 0.338109 1.39014 0.251687C1.56862 0.162953 1.75958 0.101299 1.9566 0.0687963C2.20407 0.0249139 2.46928 0.0127401 2.69644 0.00651158C2.82575 0.00311424 2.95535 0.00169868 3.08381 0.000849343L3.56358 0H42.4364Z" fill="white"/>
</svg>
