<svg width="44" height="9" viewBox="0 0 44 9" fill="none" xmlns="http://www.w3.org/2000/svg">
<path d="M2.50946 0.949805H0.526306V7.8248H2.50946C3.55789 7.8248 4.31578 7.5748 4.98525 7.0373C5.78104 6.3873 6.24841 5.4123 6.24841 4.3998C6.23578 2.3623 4.70736 0.949805 2.50946 0.949805ZM4.10104 6.1248C3.67157 6.4998 3.12841 6.6748 2.2442 6.6748H1.87789V2.12481H2.2442C3.11578 2.12481 3.64631 2.2748 4.10104 2.6748C4.56841 3.0873 4.84631 3.7248 4.84631 4.3873C4.84631 5.0498 4.56841 5.71231 4.10104 6.1248ZM6.86736 0.949805H8.21894V7.8248H6.86736V0.949805ZM11.5284 3.58731C10.72 3.28731 10.48 3.0873 10.48 2.7248C10.48 2.2873 10.9095 1.9623 11.4905 1.9623C11.8947 1.9623 12.2358 2.1248 12.5768 2.5248L13.2842 1.6123C12.7032 1.1123 12.0084 0.849805 11.2379 0.849805C10.0126 0.849805 9.06526 1.6998 9.06526 2.8248C9.06526 3.7748 9.50736 4.2623 10.7705 4.7123C11.301 4.89981 11.5663 5.0248 11.7053 5.0998C11.9705 5.2748 12.1095 5.52481 12.1095 5.8123C12.1095 6.3748 11.6674 6.7873 11.061 6.7873C10.4168 6.7873 9.89894 6.46231 9.58315 5.87481L8.71157 6.71231C9.33052 7.62481 10.0884 8.0248 11.1116 8.0248C12.5137 8.0248 13.5116 7.0998 13.5116 5.76231C13.5368 4.64981 13.0695 4.14981 11.5284 3.58731ZM13.9537 4.3998C13.9537 6.4248 15.5579 7.9873 17.6168 7.9873C18.1979 7.9873 18.7032 7.8748 19.3095 7.58731V6.0123C18.7663 6.5498 18.2863 6.76231 17.68 6.76231C16.3158 6.76231 15.3432 5.7873 15.3432 4.3873C15.3432 3.0623 16.341 2.02481 17.6168 2.02481C18.261 2.02481 18.7537 2.24981 19.3095 2.79981V1.2248C18.7158 0.924805 18.2232 0.799805 17.6421 0.799805C15.6084 0.799805 13.9537 2.3998 13.9537 4.3998ZM30.0716 5.5748L28.2147 0.949805H26.7368L29.68 7.9998H30.4126L33.4063 0.949805H31.941L30.0716 5.5748ZM34.0253 7.8248H37.8653V6.6623H35.3768V4.8123H37.7768V3.6498H35.3768V2.12481H37.8653V0.949805H34.0253V7.8248ZM43.2337 2.9873C43.2337 1.6998 42.3368 0.962305 40.7705 0.962305H38.7621V7.83731H40.1137V5.0748H40.2905L42.16 7.83731H43.8274L41.6421 4.93731C42.6653 4.72481 43.2337 4.0373 43.2337 2.9873ZM40.5053 4.1248H40.1137V2.0373H40.5305C41.3768 2.0373 41.8316 2.38731 41.8316 3.06231C41.8316 3.74981 41.3768 4.1248 40.5053 4.1248Z" fill="#231F20"/>
</svg>
