<svg width="733" height="453" viewBox="0 0 733 453" fill="none" xmlns="http://www.w3.org/2000/svg">
<g filter="url(#filter0_dd)">
<path d="M70 381L165.25 285.75C181.404 269.596 207.596 269.596 223.75 285.75V285.75C239.904 301.904 266.096 301.904 282.25 285.75L350.25 217.75C372.756 195.244 409.244 195.244 431.75 217.75V217.75C454.256 240.256 490.744 240.256 513.25 217.75L662.5 68.5" stroke="white" stroke-width="60" stroke-linecap="round" stroke-linejoin="round"/>
</g>
<circle cx="70" cy="381" r="20" fill="#C3F1E6"/>
<circle cx="110" cy="341" r="20" fill="#C3F1E6"/>
<circle cx="150" cy="301" r="20" fill="#2ECFA8"/>
<circle cx="353" cy="215" r="20" fill="#8DA3E4"/>
<circle cx="313" cy="255" r="20" fill="#D8E2FF"/>
<circle cx="663" cy="68" r="20" fill="#FBC54F"/>
<circle cx="623" cy="108" r="20" fill="#FEECD0"/>
<circle cx="543" cy="188" r="20" fill="#FEECD0"/>
<circle cx="583" cy="148" r="20" fill="#FEECD0"/>
<defs>
<filter id="filter0_dd" x="0" y="0.5" width="732.5" height="452.5" filterUnits="userSpaceOnUse" color-interpolation-filters="sRGB">
<feFlood flood-opacity="0" result="BackgroundImageFix"/>
<feColorMatrix in="SourceAlpha" type="matrix" values="0 0 0 0 0 0 0 0 0 0 0 0 0 0 0 0 0 0 127 0"/>
<feOffset dy="2"/>
<feGaussianBlur stdDeviation="20"/>
<feColorMatrix type="matrix" values="0 0 0 0 0.0901961 0 0 0 0 0.160784 0 0 0 0 0.25098 0 0 0 0.05 0"/>
<feBlend mode="normal" in2="BackgroundImageFix" result="effect1_dropShadow"/>
<feColorMatrix in="SourceAlpha" type="matrix" values="0 0 0 0 0 0 0 0 0 0 0 0 0 0 0 0 0 0 127 0"/>
<feOffset dy="5"/>
<feGaussianBlur stdDeviation="5"/>
<feColorMatrix type="matrix" values="0 0 0 0 0.0901961 0 0 0 0 0.160784 0 0 0 0 0.25098 0 0 0 0.1 0"/>
<feBlend mode="normal" in2="effect1_dropShadow" result="effect2_dropShadow"/>
<feBlend mode="normal" in="SourceGraphic" in2="effect2_dropShadow" result="shape"/>
</filter>
</defs>
</svg>
